<svg width="76" height="60" viewBox="0 0 76 60" fill="none" xmlns="http://www.w3.org/2000/svg">
<path d="M18.81 15.83L16.08 29H12.69L8.34 8H11.34L14.43 23.36L17.64 8H19.98L23.19 23.36L26.13 8H29.22L24.9 29H21.57L18.81 15.83Z" fill="black"/>
<path d="M31.85 52.89C32.61 52.89 33.28 52.67 33.86 52.23C34.46 51.79 34.76 50.97 34.76 49.77V35.64L32.9 35.58V33H37.46V50.04C37.46 51.8 37.09 53.08 36.35 53.88C35.63 54.68 34.41 55.09 32.69 55.11L31.85 52.89Z" fill="black"/>
<path d="M50 11C50 10.4477 49.5523 10 49 10H40C39.4477 10 39 10.4477 39 11C39 11.5523 39.4477 12 40 12H48V20C48 20.5523 48.4477 21 49 21C49.5523 21 50 20.5523 50 20V11ZM6.70711 54.7071L49.7071 11.7071L48.2929 10.2929L5.29289 53.2929L6.70711 54.7071Z" fill="black"/>
</svg>
