<svg width="112" height="91" viewBox="0 0 112 91" fill="none" xmlns="http://www.w3.org/2000/svg">
<path d="M98.875 0H13.125C5.88788 0 0 5.88788 0 13.125V23.952L48.1668 59.7791C50.5094 61.5215 53.2547 62.3927 56 62.3927C58.7453 62.3927 61.4906 61.5217 63.8332 59.7791L112 23.952V13.125C112 5.88788 106.112 0 98.875 0ZM103.25 19.5554L58.6112 52.7581C57.0493 53.9199 54.9507 53.9199 53.389 52.7581L8.75 19.5554V13.125C8.75 10.7126 10.7126 8.75 13.125 8.75H98.875C101.287 8.75 103.25 10.7126 103.25 13.125V19.5554ZM103.25 41.3654L112 34.8572V77.875C112 85.1121 106.112 91 98.875 91H13.125C5.88788 91 0 85.1121 0 77.875V34.8572L8.75 41.3654V77.875C8.75 80.2874 10.7126 82.25 13.125 82.25H98.875C101.287 82.25 103.25 80.2874 103.25 77.875V41.3654Z" fill="white"/>
</svg>
